<!DOCTYPE svg PUBLIC "-//W3C//DTD SVG 1.1//EN" "http://www.w3.org/Graphics/SVG/1.1/DTD/svg11.dtd">

<!-- Uploaded to: SVG Repo, www.svgrepo.com, Transformed by: SVG Repo Mixer Tools -->
<svg width="800px" height="800px" viewBox="-8.64 -8.64 53.28 53.28" xmlns="http://www.w3.org/2000/svg" fill="none" transform="rotate(45)" stroke="none" stroke-width="1.1880000000000002">

<g id="SVGRepo_bgCarrier" stroke-width="0" transform="translate(0,0), scale(1)">

<path transform="translate(-8.64, -8.64), scale(3.33)" fill="#10002e" d="M9.166.33a2.25 2.25 0 00-2.332 0l-5.25 3.182A2.25 2.25 0 00.5 5.436v5.128a2.25 2.25 0 001.084 1.924l5.25 3.182a2.25 2.25 0 002.332 0l5.25-3.182a2.25 2.25 0 001.084-1.924V5.436a2.25 2.25 0 00-1.084-1.924L9.166.33z" strokewidth="0"/>

</g>

<g id="SVGRepo_tracerCarrier" stroke-linecap="round" stroke-linejoin="round"/>

<g id="SVGRepo_iconCarrier">

<path d="M27.6 14.2426092L27.6 15.6852683C27.6 16.2158254 27.1970563 16.6459269 26.7 16.6459269L21.3 16.6459269C20.8029437 16.6459269 20.4 16.2158254 20.4 15.6852683L20.4 14.2426092C11.4042134 14.9678356 6 18.0459827 6 16.6339865 6 15.1676293 14.906129 9.9124942 22.2 9.07386223L22.2 8.96065854C22.2 8.43010148 22.6029437 8 23.1 8L24.9 8C25.3970563 8 25.8 8.43010148 25.8 8.96065854L25.8 9.0732069C33.093871 9.9124942 42 15.1676293 42 16.6339865 42 18.0459827 36.5957866 14.9678356 27.6 14.2426092zM22.5 18L25.5 18C26.0522847 18 26.5 18.4477153 26.5 19L26.5 39.5C26.5 40.8807119 25.3807119 42 24 42L24 42C22.6192881 42 21.5 40.8807119 21.5 39.5L21.5 19C21.5 18.4477153 21.9477153 18 22.5 18z" fill="#ffffff" fill-rule="evenodd" transform="translate(-6 -8)"/>

</g>

</svg>